<?xml version="1.0" encoding="iso-8859-1"?>
<!-- Generator: Adobe Illustrator 19.0.0, SVG Export Plug-In . SVG Version: 6.00 Build 0)  -->
<svg version="1.1" id="Layer_1" xmlns="http://www.w3.org/2000/svg" xmlns:xlink="http://www.w3.org/1999/xlink" x="0px" y="0px"
	 viewBox="0 0 512 512" style="enable-background:new 0 0 512 512;" xml:space="preserve">
<circle style="fill:#FEE187;" cx="256" cy="256" r="256"/>
<path style="fill:#FFC61B;" d="M511.731,267.478L389.746,145.492L107.334,388.57l122.058,122.058
	c8.747,0.903,17.622,1.371,26.608,1.371C393.537,512,505.725,403.535,511.731,267.478z"/>
<path style="fill:#990050;" d="M137.55,402.316l-30.217-13.745c-3.084-1.403-2.805-6.053,0.564-9.421l30.475-30.475
	c2.848-2.848,6.742-3.569,8.701-1.612l21.98,21.982c1.958,1.958,1.236,5.853-1.612,8.701l-22.24,22.24
	C142.851,402.335,139.704,403.296,137.55,402.316z"/>
<path style="fill:#FF1D89;" d="M147.075,347.062c-1.958-1.958-5.853-1.236-8.701,1.612l-30.475,30.475
	c-3.369,3.37-3.648,8.02-0.564,9.421l11.854,5.392l37.393-37.393L147.075,347.062z"/>
<path style="fill:#990050;" d="M385.989,179.977l-49.848-49.848c-2.426-2.426-2.426-6.359,0-8.787l10.333-10.333
	c2.426-2.426,6.359-2.426,8.787,0l49.848,49.848c2.426,2.426,2.426,6.359,0,8.787l-10.333,10.333
	C392.349,182.403,388.415,182.403,385.989,179.977z"/>
<path style="fill:#FF1D89;" d="M355.261,111.007c-2.426-2.426-6.359-2.426-8.787,0l-10.335,10.335c-2.426,2.426-2.426,6.359,0,8.787
	l23.442,23.442l19.12-19.12L355.261,111.007z"/>
<path style="fill:#334651;" d="M133.947,349.856l32.313,32.313c2.693,2.693,7.059,2.693,9.752,0l15.741-15.741
	c2.693-2.693,2.693-7.059,0-9.752l-32.313-32.313c-2.693-2.693-7.059-2.693-9.752,0l-15.741,15.741
	C131.255,342.799,131.255,347.164,133.947,349.856z"/>
<path style="fill:#425460;" d="M159.442,324.363c-2.693-2.693-7.059-2.693-9.752,0l-15.741,15.741c-2.693,2.693-2.693,7.059,0,9.752
	l14.672,14.672l25.493-25.493L159.442,324.363z"/>
<path style="fill:#162A38;" d="M187.832,375.698l-47.413-47.413c-10.492-10.492-10.492-27.501,0-37.991l172.332-172.332
	c10.492-10.492,27.501-10.492,37.991,0l47.413,47.413c10.492,10.492,10.492,27.501,0,37.991L225.823,375.698
	C215.333,386.189,198.323,386.189,187.832,375.698z"/>
<path style="fill:#223849;" d="M350.742,117.962c-10.492-10.492-27.501-10.492-37.993,0L140.417,290.294
	c-10.492,10.492-10.492,27.501,0,37.991l22.223,22.223l210.325-210.323L350.742,117.962z"/>
<path style="fill:#990050;" d="M235.525,297.198l4.427,4.427c4.586,4.586,12.021,4.586,16.606,0l88.555-88.555
	c4.586-4.586,4.586-12.021,0-16.606l-4.427-4.427c-4.586-4.586-12.021-4.586-16.606,0l-88.555,88.555
	C230.94,285.177,230.94,292.612,235.525,297.198z"/>
<g>
</g>
<g>
</g>
<g>
</g>
<g>
</g>
<g>
</g>
<g>
</g>
<g>
</g>
<g>
</g>
<g>
</g>
<g>
</g>
<g>
</g>
<g>
</g>
<g>
</g>
<g>
</g>
<g>
</g>
</svg>
